<svg xmlns="http://www.w3.org/2000/svg" width="1924" height="256" viewBox="0 0 1924 256">
  <path id="digital_dark_one" d="M61.04-48.211H51.3v57.6H15.1V-185.394H51.3V-70.472l8.352-3.9,31.737-55.374H131.2L97.789-76.872,83.591-66.3,98.9-55.446,136.486,9.389H95Zm80.735-11.965q0-35.339,17.261-54.4t48.441-19.061q16.7,0,28.953,5.287a54.087,54.087,0,0,1,20.323,14.887,63.661,63.661,0,0,1,12.11,23.235A105.574,105.574,0,0,1,272.9-60.177q0,35.339-17.121,54.4t-48.3,19.061q-16.7,0-28.953-5.287A55.333,55.333,0,0,1,158.062-6.89a62.506,62.506,0,0,1-12.249-23.235A105.574,105.574,0,0,1,141.775-60.177Zm37.305,0a80.99,80.99,0,0,0,1.67,16.974,47.3,47.3,0,0,0,5.011,13.635,24.172,24.172,0,0,0,8.77,9.043,25.044,25.044,0,0,0,12.945,3.2q14.2,0,21.158-10.3t6.96-32.557q0-19.2-6.4-31.026t-21.715-11.826q-13.363,0-20.88,10.017T179.081-60.177Zm163.7,3.339,4.733,21.426H348.9l3.9-21.983,23.664-72.348H415.44L357.255,10.78H335.261L274.849-129.742h42.038ZM489.493-51.55l5.011,21.7h1.67l3.619-21.983,21.158-77.913h37.305L515.941-4.246q-5.29,15.583-10.162,28.522a129.444,129.444,0,0,1-10.718,22.4,50.447,50.447,0,0,1-12.945,14.609,27.918,27.918,0,0,1-16.843,5.148q-14.477,0-23.107-4.73l6.682-28.939a22.351,22.351,0,0,0,8.352,1.67q6.4,0,12.389-5.426t9.048-19.617l-58.185-139.13h43.43ZM609.2-37.359q0,9.739,2.506,14.191t8.073,4.452a38.131,38.131,0,0,0,6.542-.557,39.573,39.573,0,0,0,7.934-2.5l3.9,28.383a68.582,68.582,0,0,1-13.641,4.452,80.1,80.1,0,0,1-18.931,2.226q-15.869,0-24.221-7.374t-8.352-24.348V-185.394H609.2ZM704.415-51.55l5.011,21.7h1.67l3.619-21.983,21.158-77.913h37.305L730.863-4.246q-5.29,15.583-10.162,28.522a129.444,129.444,0,0,1-10.718,22.4,50.447,50.447,0,0,1-12.945,14.609,27.919,27.919,0,0,1-16.843,5.148q-14.477,0-23.107-4.73l6.682-28.939a22.351,22.351,0,0,0,8.352,1.67q6.4,0,12.389-5.426t9.048-19.617l-58.185-139.13H678.8Zm81.57-70.122a119.13,119.13,0,0,1,26.448-7.93,170.535,170.535,0,0,1,32.016-2.922q14.477,0,24.221,3.478a36.764,36.764,0,0,1,15.451,9.878,36.808,36.808,0,0,1,8.074,15.3,78.085,78.085,0,0,1,2.366,20.035q0,12.243-.835,24.626t-.974,24.348q-.139,11.965.7,23.235a87.462,87.462,0,0,0,4.176,21.287h-29.51l-5.846-19.2h-1.392A49.533,49.533,0,0,1,845.423,5.354q-9.883,6.261-25.473,6.261a49.684,49.684,0,0,1-17.539-2.922A37.972,37.972,0,0,1,789.048.345a38.026,38.026,0,0,1-8.63-12.8,42.8,42.8,0,0,1-3.062-16.557q0-12.8,5.707-21.565a41.271,41.271,0,0,1,16.425-14.191q10.718-5.426,25.612-7.513a181.583,181.583,0,0,1,33.268-1.252q1.949-15.583-2.227-22.4t-18.653-6.817a127.226,127.226,0,0,0-22.968,2.226,84.007,84.007,0,0,0-19.905,5.843ZM831.921-18.159q10.857,0,17.261-4.87a33.979,33.979,0,0,0,9.465-10.435V-51.55a99.611,99.611,0,0,0-16.565-.278,60.475,60.475,0,0,0-14.059,2.5,23.638,23.638,0,0,0-9.744,5.565,12.438,12.438,0,0,0-3.619,9.183q0,7.791,4.593,12.1T831.921-18.159ZM1036.264-2.577q-8.352,6.678-22.689,11.27a99.371,99.371,0,0,1-30.484,4.591q-33.686,0-49.276-19.617t-15.59-53.843q0-36.73,17.539-55.1t49.276-18.365a76.649,76.649,0,0,1,20.6,2.783,47.954,47.954,0,0,1,17.817,9.183,45.18,45.18,0,0,1,12.528,17.252q4.733,10.852,4.733,26.991a121.563,121.563,0,0,1-.694,12.522q-.694,6.678-2.081,13.913H954.694q.831,17.53,9.017,26.435t26.5,8.9a56.32,56.32,0,0,0,20.393-3.478q9.017-3.478,13.733-7.1ZM984.6-104.7q-14.124,0-20.908,8.487t-8.167,22.678h51.5q1.114-15.026-4.565-23.1T984.6-104.7ZM1110.6-56.837l4.733,21.426h1.392l3.9-21.983,23.664-72.348h38.976L1125.073,10.78H1103.08l-60.412-140.522h42.038ZM1307.7-38.472q0,14.191.278,25.739a131.529,131.529,0,0,0,2.505,22.678h-15.033l-5.568-19.757h-1.113a44.849,44.849,0,0,1-16.147,16.139q-10.579,6.4-24.777,6.4-27.84,0-41.342-17.53T1193-59.62q0-35.617,16.843-54.122t46.353-18.5a93.444,93.444,0,0,1,16.286,1.113,83.742,83.742,0,0,1,12.945,3.617v-57.878H1307.7ZM1251.465-6.75q14.2,0,22.55-7.374t11.414-22.4v-69.009a31.2,31.2,0,0,0-11.414-5.565,69.634,69.634,0,0,0-16.982-1.67q-19.21,0-30.067,12.661T1216.109-59.62a115.885,115.885,0,0,0,1.81,21.148,49.933,49.933,0,0,0,5.985,16.7,31.2,31.2,0,0,0,11,10.991Q1241.721-6.75,1251.465-6.75Zm103.842-122.991h22.272V9.389h-22.272Zm-4.733-42.3a15.488,15.488,0,0,1,4.315-10.991,14.431,14.431,0,0,1,11-4.591,15.8,15.8,0,0,1,11.414,4.591,14.777,14.777,0,0,1,4.733,10.991,13.486,13.486,0,0,1-4.733,10.574,16.662,16.662,0,0,1-11.414,4.174,15.168,15.168,0,0,1-11-4.174A14.084,14.084,0,0,1,1350.574-172.037ZM1531.811,15.789q0,26.991-14.337,39.791t-42.456,12.8q-16.7,0-26.865-2.087a80.317,80.317,0,0,1-17.4-5.426l5.846-18.922q6.4,2.5,14.2,4.73T1471.12,48.9q11.693,0,19.07-2.087a24.721,24.721,0,0,0,11.832-6.957,26.5,26.5,0,0,0,6.125-12.522,86.527,86.527,0,0,0,1.67-18.226V-4.246H1508.7a37.24,37.24,0,0,1-14.2,12.383q-8.63,4.313-22.55,4.313-28.118,0-41.342-17.53T1417.389-59.62q0-35.617,16.982-54.122t50.111-18.5a126.979,126.979,0,0,1,27.144,2.5,151.043,151.043,0,0,1,20.184,5.843ZM1475.853-7.029q14.2,0,22.272-7.1t11.414-22.122v-71.235q-11.136-5.287-28.4-5.287-18.931,0-29.788,12.8T1440.5-59.9a109.4,109.4,0,0,0,1.949,21.426,52.106,52.106,0,0,0,6.125,16.7,30.422,30.422,0,0,0,10.857,10.852Q1466.109-7.029,1475.853-7.029Zm103.564-122.713h22.272V9.389h-22.272Zm-4.733-42.3A15.489,15.489,0,0,1,1579-183.029a14.431,14.431,0,0,1,11-4.591,15.8,15.8,0,0,1,11.414,4.591,14.776,14.776,0,0,1,4.733,10.991,13.485,13.485,0,0,1-4.733,10.574A16.662,16.662,0,0,1,1590-157.29a15.168,15.168,0,0,1-11-4.174A14.085,14.085,0,0,1,1574.684-172.037Zm56.236,42.3h21.715V-157.29l22.272-6.4v33.948h37.862v19.478h-37.862v77.078q0,14.47,3.619,20.452t12.25,5.983a42.4,42.4,0,0,0,12.249-1.53q5.011-1.53,11.136-4.035l5.011,16.974a85.675,85.675,0,0,1-16.425,5.843,79.072,79.072,0,0,1-19.209,2.226q-16.982,0-23.942-9.6t-6.96-32.139v-81.252H1630.92Zm110.523,10.3a80.218,80.218,0,0,1,24.638-9.461,137.719,137.719,0,0,1,29.371-3.061q14.477,0,23.246,3.9t13.363,10.157a34.769,34.769,0,0,1,6.125,13.774,75.08,75.08,0,0,1,1.531,15.026q0,16.7-.835,32.557t-.835,30.052q0,10.3.835,19.478a92.1,92.1,0,0,0,3.062,16.974h-16.425l-5.846-19.478h-1.392a46.307,46.307,0,0,1-6.264,7.652,40.149,40.149,0,0,1-9.048,6.678,57.151,57.151,0,0,1-12.25,4.87,58.983,58.983,0,0,1-15.869,1.948,48.135,48.135,0,0,1-16.565-2.783A38.7,38.7,0,0,1,1745.063.9a37.082,37.082,0,0,1-8.77-12.383,40.176,40.176,0,0,1-3.2-16.417q0-12.243,5.011-20.452a36.129,36.129,0,0,1,14.059-13.078,69.5,69.5,0,0,1,21.715-6.957,172.732,172.732,0,0,1,27.979-2.087h7.656a54.122,54.122,0,0,1,7.656.557q.835-8.348.835-15.026,0-15.3-6.125-21.426t-22.272-6.122a78.049,78.049,0,0,0-10.161.715q-5.429.715-11.136,2a91.083,91.083,0,0,0-10.858,3.148,54.1,54.1,0,0,0-9.048,4.15ZM1780.976-7.863A43.046,43.046,0,0,0,1794.9-9.95a40.283,40.283,0,0,0,10.579-5.287,33.685,33.685,0,0,0,7.378-7.1,31.6,31.6,0,0,0,4.315-7.513v-23.1q-3.9-.278-7.934-.417T1801.3-53.5a142.936,142.936,0,0,0-16.843.974,53.342,53.342,0,0,0-14.477,3.617,25.432,25.432,0,0,0-10.022,7.235,17.631,17.631,0,0,0-3.758,11.548,20.56,20.56,0,0,0,6.96,16Q1770.118-7.863,1780.976-7.863Zm125.557-16.974q0,9.739,3.341,13.913t9.465,4.174a59.22,59.22,0,0,0,7.8-.557,45.106,45.106,0,0,0,9.465-2.5l2.506,17.53a46.424,46.424,0,0,1-12.389,3.617,81.293,81.293,0,0,1-13.781,1.391q-12.528,0-20.6-7.1t-8.074-24.07V-185.394h22.272Z" transform="translate(-15.105 187.62)" fill="#151515"/>
</svg>
