<svg xmlns="http://www.w3.org/2000/svg" width="1146" height="512" viewBox="0 0 1146 512">
  <path id="digital_dark_two" d="M60.144-51.1H50.6V5.337H15.166V-185.5H50.6V-72.906l8.178-3.817,31.076-54.252h38.981l-32.712,51.8-13.9,10.36L97.218-58.184l36.8,63.522H93.4ZM139.2-62.819q0-34.623,16.9-53.3t47.432-18.675q16.356,0,28.35,5.18a52.962,52.962,0,0,1,19.9,14.585,62.383,62.383,0,0,1,11.858,22.764,103.492,103.492,0,0,1,3.953,29.444q0,34.623-16.765,53.3t-47.3,18.675q-16.356,0-28.35-5.18a54.182,54.182,0,0,1-20.036-14.585A61.253,61.253,0,0,1,143.15-33.375,103.493,103.493,0,0,1,139.2-62.819Zm36.528,0a79.394,79.394,0,0,0,1.636,16.63,46.36,46.36,0,0,0,4.907,13.359,23.675,23.675,0,0,0,8.587,8.86,24.511,24.511,0,0,0,12.676,3.135q13.9,0,20.717-10.087t6.815-31.9q0-18.811-6.27-30.4T203.531-104.8q-13.085,0-20.445,9.814T175.726-62.819Zm160.287,3.271,4.634,20.992h1.363l3.816-21.537L369-130.975h38.164L350.188,6.7H328.653L269.5-130.975h41.162Zm143.659,5.18L484.579-33.1h1.636l3.544-21.537,20.717-76.335H547L505.569-8.021q-5.179,15.267-9.95,27.944a126.858,126.858,0,0,1-10.495,21.946,49.416,49.416,0,0,1-12.676,14.313,27.326,27.326,0,0,1-16.492,5.044q-14.175,0-22.626-4.635l6.542-28.353a21.874,21.874,0,0,0,8.178,1.636q6.27,0,12.131-5.316t8.859-19.22L412.068-130.975h42.525Zm117.217,13.9q0,9.542,2.453,13.9t7.905,4.362a37.317,37.317,0,0,0,6.406-.545,38.733,38.733,0,0,0,7.769-2.454l3.816,27.808a67.127,67.127,0,0,1-13.357,4.362,78.391,78.391,0,0,1-18.537,2.181q-15.538,0-23.716-7.225t-8.178-23.855V-185.5h35.438Zm93.228-13.9L695.024-33.1h1.636L700.2-54.64l20.717-76.335h36.528L716.014-8.021q-5.179,15.267-9.95,27.944a126.852,126.852,0,0,1-10.495,21.946,49.416,49.416,0,0,1-12.676,14.313A27.326,27.326,0,0,1,666.4,61.226q-14.175,0-22.626-4.635l6.542-28.353a21.874,21.874,0,0,0,8.178,1.636q6.27,0,12.131-5.316t8.859-19.22L622.513-130.975h42.525Zm79.871-68.7a116.6,116.6,0,0,1,25.9-7.77,166.887,166.887,0,0,1,31.349-2.863q14.175,0,23.716,3.408a36,36,0,0,1,15.129,9.678,36.07,36.07,0,0,1,7.905,14.994A76.543,76.543,0,0,1,876.3-85.992q0,12-.818,24.127t-.954,23.855q-.136,11.723.681,22.764A85.737,85.737,0,0,0,879.3,5.61H850.4L844.68-13.2h-1.363A48.515,48.515,0,0,1,828.188,1.384q-9.677,6.134-24.943,6.134a48.624,48.624,0,0,1-17.174-2.863,37.178,37.178,0,0,1-13.085-8.179,37.259,37.259,0,0,1-8.451-12.541,41.953,41.953,0,0,1-3-16.221q0-12.541,5.588-21.128a40.419,40.419,0,0,1,16.083-13.9,79.886,79.886,0,0,1,25.079-7.361A177.7,177.7,0,0,1,840.864-75.9q1.908-15.267-2.181-21.946t-18.264-6.679a124.506,124.506,0,0,0-22.489,2.181,82.22,82.22,0,0,0-19.491,5.725ZM814.967-21.652q10.631,0,16.9-4.771a33.282,33.282,0,0,0,9.268-10.223V-54.367a97.477,97.477,0,0,0-16.219-.273,59.184,59.184,0,0,0-13.766,2.454,23.142,23.142,0,0,0-9.541,5.452,12.19,12.19,0,0,0-3.544,9q0,7.634,4.5,11.859T814.967-21.652ZM1015.054-6.385Q1006.876.158,992.837,4.656a97.248,97.248,0,0,1-29.849,4.5q-32.984,0-48.25-19.22T899.472-62.819q0-35.987,17.174-53.98t48.25-17.993a75.011,75.011,0,0,1,20.172,2.726,46.944,46.944,0,0,1,17.446,9,44.263,44.263,0,0,1,12.267,16.9q4.634,10.632,4.634,26.445a119.171,119.171,0,0,1-.679,12.268q-.68,6.543-2.038,13.631H935.182q.814,17.175,8.83,25.9T969.956-19.2a55.118,55.118,0,0,0,19.968-3.408q8.83-3.408,13.447-6.952ZM964.47-106.439q-13.83,0-20.472,8.315T936-75.9h50.431q1.09-14.722-4.47-22.628T964.47-106.439Zm123.367,46.892,4.634,20.992h1.363l3.816-21.537,23.171-70.882h38.164L1102.012,6.7h-21.535l-59.154-137.676h41.162ZM125.3,221.812q0,13.9.273,25.218a128.929,128.929,0,0,0,2.453,22.219H113.3l-5.452-19.356h-1.09A43.926,43.926,0,0,1,90.948,265.7q-10.359,6.27-24.261,6.27-27.26,0-40.481-17.175T12.985,201.093q0-34.9,16.492-53.026t45.387-18.13a91.445,91.445,0,0,1,15.947,1.09,81.97,81.97,0,0,1,12.676,3.544V77.866H125.3ZM70.23,252.891q13.9,0,22.08-7.225t11.176-21.946V156.109a30.547,30.547,0,0,0-11.176-5.452,68.145,68.145,0,0,0-16.628-1.636q-18.809,0-29.441,12.4T35.611,201.093a113.607,113.607,0,0,0,1.772,20.719,48.944,48.944,0,0,0,5.861,16.357,30.557,30.557,0,0,0,10.768,10.769Q60.69,252.891,70.23,252.891Zm101.679-120.5h21.808V268.7H171.909Zm-4.634-41.439A15.179,15.179,0,0,1,171.5,80.183a14.126,14.126,0,0,1,10.768-4.5,15.466,15.466,0,0,1,11.177,4.5,14.481,14.481,0,0,1,4.634,10.769,13.216,13.216,0,0,1-4.634,10.36,16.309,16.309,0,0,1-11.177,4.089,14.846,14.846,0,0,1-10.768-4.089A13.8,13.8,0,0,1,167.275,90.952ZM344.736,274.974q0,26.445-14.039,38.985T289.126,326.5q-16.356,0-26.306-2.045a78.607,78.607,0,0,1-17.037-5.316l5.725-18.538q6.27,2.454,13.9,4.635t19.9,2.181q11.449,0,18.673-2.045a24.2,24.2,0,0,0,11.585-6.816,25.974,25.974,0,0,0,6-12.268,84.827,84.827,0,0,0,1.636-17.857V255.345h-1.09a36.471,36.471,0,0,1-13.9,12.132q-8.451,4.226-22.08,4.226-27.532,0-40.481-17.175T232.7,201.093q0-34.9,16.628-53.026t49.068-18.13a124.264,124.264,0,0,1,26.578,2.454,147.832,147.832,0,0,1,19.763,5.725Zm-54.792-22.355q13.9,0,21.808-6.952t11.177-21.674V154.2q-10.9-5.18-27.8-5.18-18.537,0-29.168,12.541T255.324,200.82a107.241,107.241,0,0,0,1.908,20.992,51.065,51.065,0,0,0,6,16.357A29.8,29.8,0,0,0,273.861,248.8Q280.4,252.619,289.944,252.619ZM391.35,132.391h21.808V268.7H391.35Zm-4.634-41.439a15.179,15.179,0,0,1,4.225-10.769,14.126,14.126,0,0,1,10.768-4.5,15.466,15.466,0,0,1,11.176,4.5,14.481,14.481,0,0,1,4.634,10.769,13.216,13.216,0,0,1-4.634,10.36,16.309,16.309,0,0,1-11.176,4.089,14.846,14.846,0,0,1-10.768-4.089A13.8,13.8,0,0,1,386.716,90.952Zm55.065,41.439h21.263V105.4l21.808-6.27v33.26h37.073v19.084H484.851v75.517q0,14.176,3.544,20.038t11.994,5.861a41.491,41.491,0,0,0,11.994-1.5q4.907-1.5,10.9-3.953l4.907,16.63a83.854,83.854,0,0,1-16.083,5.725,77.382,77.382,0,0,1-18.809,2.181q-16.628,0-23.443-9.406t-6.815-31.488V151.475H441.781ZM550,142.478a78.521,78.521,0,0,1,24.125-9.269,134.779,134.779,0,0,1,28.759-3q14.175,0,22.762,3.817t13.085,9.951a34.076,34.076,0,0,1,6,13.495,73.586,73.586,0,0,1,1.5,14.722q0,16.357-.818,31.9t-.818,29.444q0,10.087.818,19.084a90.285,90.285,0,0,0,3,16.63H632.327L626.6,250.165h-1.363a45.367,45.367,0,0,1-6.133,7.5,39.316,39.316,0,0,1-8.86,6.543,55.942,55.942,0,0,1-11.994,4.771,57.722,57.722,0,0,1-15.538,1.908,47.107,47.107,0,0,1-16.22-2.726,37.885,37.885,0,0,1-12.948-7.77,36.331,36.331,0,0,1-8.587-12.132,39.382,39.382,0,0,1-3.135-16.085q0-12,4.907-20.038A35.385,35.385,0,0,1,560.5,199.32,68.021,68.021,0,0,1,581.76,192.5a169.039,169.039,0,0,1,27.4-2.045h7.5a52.966,52.966,0,0,1,7.5.545q.818-8.179.818-14.722,0-14.994-6-20.992t-21.808-6a76.38,76.38,0,0,0-9.95.7q-5.316.7-10.9,1.964a89.138,89.138,0,0,0-10.631,3.084,52.966,52.966,0,0,0-8.86,4.066ZM588.711,251.8a42.126,42.126,0,0,0,13.63-2.045,39.436,39.436,0,0,0,10.359-5.18,32.992,32.992,0,0,0,7.224-6.952,30.967,30.967,0,0,0,4.225-7.361V207.636q-3.816-.273-7.769-.409t-7.769-.136a139.882,139.882,0,0,0-16.492.954,52.207,52.207,0,0,0-14.175,3.544,24.9,24.9,0,0,0-9.813,7.088,17.281,17.281,0,0,0-3.68,11.314,20.149,20.149,0,0,0,6.815,15.676Q578.08,251.8,588.711,251.8Zm122.941-16.63q0,9.542,3.271,13.631t9.268,4.089a57.951,57.951,0,0,0,7.633-.545,44.144,44.144,0,0,0,9.268-2.454l2.453,17.175a45.438,45.438,0,0,1-12.131,3.544,79.553,79.553,0,0,1-13.494,1.363q-12.267,0-20.172-6.952t-7.905-23.582V77.866h21.808Z" transform="translate(-12.985 185.5)" fill="#151515"/>
</svg>
